<?xml version="1.0" encoding="utf-8"?>
<!-- Generator: Adobe Illustrator 27.9.6, SVG Export Plug-In . SVG Version: 9.03 Build 54986)  -->
<svg version="1.1" id="Layer_1" xmlns="http://www.w3.org/2000/svg" xmlns:xlink="http://www.w3.org/1999/xlink" x="0px" y="0px"
	 viewBox="0 0 379.9 75" style="enable-background:new 0 0 379.9 75;" xml:space="preserve">
<style type="text/css">
	.st0{fill:#FFFFFF;}
</style>
<g id="background">
</g>
<g id="objects">
	<g>
		<polygon class="st0" points="37.1,9.1 44.6,29.7 66.5,30.4 49.2,44 55.3,65 37.1,52.7 18.9,65 25,44 7.7,30.4 29.6,29.7 		"/>
	</g>
	<g>
		<polygon class="st0" points="114.3,9.1 121.7,29.7 143.6,30.4 126.3,44 132.4,65 114.3,52.7 96,65 102.1,44 84.8,30.4 106.7,29.7 
					"/>
	</g>
	<g>
		<polygon class="st0" points="191.4,9.1 198.8,29.7 220.7,30.4 203.4,44 209.5,65 191.4,52.7 173.2,65 179.3,44 161.9,30.4 
			183.9,29.7 		"/>
	</g>
	<g>
		<polygon class="st0" points="268.5,9.1 275.9,29.7 297.9,30.4 280.5,44 286.6,65 268.5,52.7 250.3,65 256.4,44 239.1,30.4 
			261,29.7 		"/>
	</g>
	<g>
		<polygon class="st0" points="345.6,9.1 353.1,29.7 375,30.4 357.7,44 363.8,65 345.6,52.7 327.4,65 333.5,44 316.2,30.4 
			338.1,29.7 		"/>
	</g>
</g>
</svg>
